HIERARCHY
ROOT Hips
{
   OFFSET 0.00000 0.00000 0.00000
   CHANNELS 6 Xposition Yposition Zposition Zrotation Xrotation Yrotation
   JOINT RightUpLeg
   {
      OFFSET -8.945800 -8.667070 0.101652
      CHANNELS 3 Zrotation Xrotation Yrotation
      JOINT RightLeg
      {
         OFFSET 0.000000 -44.422697 1.372700
         CHANNELS 3 Zrotation Xrotation Yrotation
         JOINT RightFoot
         {
            OFFSET 0.253549 -42.092399 -1.460590
            CHANNELS 3 Zrotation Xrotation Yrotation
            JOINT RightToes
            {
               OFFSET 0.040000 -4.415090 8.499099
               CHANNELS 3 Zrotation Xrotation Yrotation
               End Site
               {
                  OFFSET -0.080000 -0.137448 9.779790
               }
            }
         }
      }
   }
   JOINT Spine
   {
      OFFSET 0.000000 11.890501 0.000000
      CHANNELS 3 Zrotation Xrotation Yrotation
      JOINT Spine1
      {
         OFFSET 0.000000 25.657401 0.127663
         CHANNELS 3 Zrotation Xrotation Yrotation
         JOINT HEad
         {
            OFFSET 0.000000 8.734161 0.011341
            CHANNELS 3 Zrotation Xrotation Yrotation
            End Site
            {
               OFFSET -0.290000 12.774200 2.513950
            }
         }
         JOINT LeftShoulder1
         {
            OFFSET 8.990000 -0.362252 -0.220000
            CHANNELS 3 Zrotation Xrotation Yrotation
            JOINT LeftArm
            {
               OFFSET 10.282700 -0.003380 0.322123
               CHANNELS 3 Zrotation Xrotation Yrotation
               JOINT LeftForeArm
               {
                  OFFSET 32.766900 0.099144 -1.424340
                  CHANNELS 3 Zrotation Xrotation Yrotation
                  JOINT LeftHand
                  {
                     OFFSET 27.564301 0.085362 1.022160
                     CHANNELS 3 Zrotation Xrotation Yrotation
                     End Site
                     {
                        OFFSET 16.744301 -0.600000 1.502910
                     }
                  }
               }
            }
         }
         JOINT RightShoulder
         {
            OFFSET -8.990000 -0.362252 -0.220000
            CHANNELS 3 Zrotation Xrotation Yrotation
            JOINT RightArm
            {
               OFFSET -10.282700 -0.003380 0.322123
               CHANNELS 3 Zrotation Xrotation Yrotation
               JOINT RightForeArm
               {
                  OFFSET -32.897098 0.099144 -1.424340
                  CHANNELS 3 Zrotation Xrotation Yrotation
                  JOINT RightHand
                  {
                     OFFSET -27.492101 0.085362 1.022160
                     CHANNELS 3 Zrotation Xrotation Yrotation
                     End Site
                     {
                        OFFSET -16.631201 -0.600000 1.502910
                     }
                  }
               }
            }
         }
      }
   }
   JOINT LeftUpLeg
   {
      OFFSET 8.945800 -8.667070 0.101652
      CHANNELS 3 Zrotation Xrotation Yrotation
      JOINT LeftLeg
      {
         OFFSET 0.000000 -44.422697 1.372700
         CHANNELS 3 Zrotation Xrotation Yrotation
         JOINT LeftFoot
         {
            OFFSET -0.253549 -42.092399 -1.460590
            CHANNELS 3 Zrotation Xrotation Yrotation
            JOINT LeftToes
            {
               OFFSET -0.040000 -4.415090 8.499099
               CHANNELS 3 Zrotation Xrotation Yrotation
               End Site
               {
                  OFFSET 0.080000 -0.047448 9.779790
               }
            }
         }
      }
   }
}
MOTION
Frames: 15
Frame Time: 0.016667
-163.080118 93.896435 -376.258425 4.768269 48.477507 183.021899 -5.680066 32.978045 9.328460 18.432488 39.247291 -21.702299 -41.081952 1.317787 28.364212 1.435821 -17.568170 -51.616470 6.225249 46.818406 14.877568 10.204998 26.532184 -27.280494 10.111899 0.928789 13.141701 8.402162 1.295601 -14.218700 -104.980158 -58.735153 -113.636446 -36.333891 -7.565236 -41.335297 -6.712375 12.376264 -27.269643 6.922743 43.441898 35.350781 131.899409 209.803727 218.740182 -17.514321 291.333796 49.261715 3.857872 -9.336474 55.407837 25.321075 9.782587 -128.865111 -15.644371 -23.763499 124.664845 -10.377991 14.601058 19.734131 3.597149 -1.725715 4.108593
-164.178140 94.183463 -377.217478 5.005632 47.201672 182.953338 -6.298103 31.895170 9.363394 18.118252 38.204957 -19.672949 -40.721161 1.619688 28.833527 1.546827 -17.014380 -51.156590 5.030403 46.542504 14.676999 9.950792 24.806697 -28.223260 9.221839 0.166434 12.803679 8.657990 1.021533 -13.932071 -103.246963 -62.395363 -110.527801 -34.117133 -16.038679 -44.670824 -7.900914 14.327066 -21.335006 0.333684 42.825334 37.891970 132.694770 210.524312 218.946112 -18.665811 291.730138 49.704140 10.242955 -6.928788 55.365968 25.047695 9.645249 -125.587399 -15.484519 -23.213844 123.511417 -7.598708 14.808518 19.521178 3.651707 -2.005521 4.098346
-165.350778 94.484709 -378.250574 5.361551 46.317558 180.745274 -7.424691 30.807203 9.805904 15.924144 37.689725 -16.635045 -40.207920 1.547386 28.804182 1.630253 -16.478414 -50.736291 4.296704 45.488005 13.878270 9.644566 24.439771 -29.105280 7.750337 -0.501302 12.404729 9.491552 3.675000 -13.963716 -101.802740 -69.938214 -104.953916 -35.269027 -23.756767 -47.015512 -9.765801 15.924183 -9.571381 -8.155582 40.979390 40.092596 133.048779 212.180305 217.887966 -19.214176 290.088871 49.262873 16.258357 -2.515762 52.003407 24.555944 9.295394 -122.055672 -17.101197 -23.766657 122.832087 -3.289193 15.955569 19.223571 3.704479 -1.950847 4.067327
-166.666047 94.856118 -379.437212 6.875380 42.189740 176.926475 -8.754123 27.871946 11.345718 13.598130 34.930182 -11.756704 -40.009141 0.536492 28.891458 1.691373 -15.704912 -49.925814 1.846853 44.977571 16.406369 10.201509 23.005238 -28.544530 6.546119 -2.780524 11.795703 10.586178 6.181923 -15.133452 -94.085104 -78.590356 -93.612565 -39.456025 -33.668601 -50.345499 -20.775945 13.861941 6.922538 -18.664141 41.333522 36.270876 131.432101 218.553841 216.654188 -19.679049 285.029449 45.701871 21.529332 3.473457 40.501089 24.102838 5.948567 -117.085097 -19.875434 -24.634211 123.138011 3.050875 17.400691 18.600559 3.811876 -2.038297 3.993160
-167.969816 95.347079 -380.648760 9.306917 38.395922 170.964935 -10.172619 25.287385 13.263903 12.071966 32.637813 -7.081941 -40.030434 -0.297488 28.856880 1.837534 -14.755597 -49.043845 -3.211592 43.634517 19.344376 9.888727 22.081773 -28.851665 5.286351 -6.469874 11.502033 11.603247 8.402237 -15.505568 -75.627311 -87.977727 -72.107236 -44.628046 -44.641727 -50.447449 -29.345443 13.423625 9.383691 -20.993490 37.530291 34.912194 126.786725 211.549018 217.243100 -21.952303 281.965071 42.457924 3.539392 3.699156 55.043859 25.380705 4.172451 -111.420801 -21.517527 -24.270835 122.789015 7.599809 18.494235 18.029070 3.958963 -1.981109 4.342145
-169.245908 95.911540 -381.820597 9.883429 34.070807 165.832485 -12.240742 21.657399 14.646745 11.176988 30.466260 -3.790125 -40.407850 -1.410238 28.518970 1.851533 -14.153896 -48.203432 -6.831801 41.771094 21.764254 9.909640 22.570792 -27.172828 2.794442 -10.064849 11.564872 12.045346 10.893201 -15.142354 -50.458207 -93.321537 -47.366102 -52.091114 -51.242108 -47.722166 -29.913835 19.683647 10.814075 -21.263957 34.391468 36.284502 126.140261 206.923723 217.205972 -22.706561 271.903383 38.317662 16.343555 10.088122 31.204850 25.668302 2.320113 -107.187757 -22.078317 -23.824605 122.085096 11.189374 19.820832 17.579807 4.111764 -1.427436 5.058634
-170.535772 96.466826 -382.867731 9.856783 29.948112 160.688738 -14.530901 17.766528 15.342657 11.078767 27.987919 -1.483436 -40.981828 -2.357911 28.336824 1.821980 -13.610121 -47.204137 -10.717262 38.249216 20.326626 11.152531 23.239017 -25.955067 1.560022 -14.094444 12.579286 11.664817 11.145140 -13.220730 -35.079104 -99.575299 -33.221606 -57.535451 -57.201735 -46.112550 -25.802412 25.614219 10.350477 -23.839382 33.851183 40.539932 124.382389 198.212349 214.709729 -21.441028 265.102864 41.094492 -0.249047 7.256119 51.570404 25.462780 0.820201 -104.450183 -21.157158 -23.231883 121.586438 14.261211 21.870353 17.381633 4.226808 0.082665 6.158975
-171.899888 96.992501 -383.821520 9.309678 26.492362 157.255639 -16.793854 14.789854 15.101157 11.900636 24.835239 -0.129180 -41.653608 -3.390648 28.071294 1.761644 -13.168864 -46.198915 -13.940576 35.659625 18.238465 12.172420 26.897290 -24.186750 0.672305 -18.006595 14.521793 12.845745 10.693674 -11.867099 -27.590959 -101.963823 -27.793894 -62.477154 -60.151823 -46.608115 -24.467577 31.393783 12.300589 -20.304235 36.118993 39.325279 114.270636 191.998120 210.693577 -19.217063 259.641281 42.925010 6.722705 10.471550 43.400989 24.180137 -1.080178 -104.321393 -20.213550 -23.037478 122.555437 17.830615 23.293197 16.580967 4.339641 1.167806 6.809200
-173.258264 97.475537 -384.674181 6.460980 23.854005 155.527369 -20.432615 12.527623 13.638837 12.941869 20.779307 -2.389039 -42.862190 -4.229680 26.802193 1.820285 -12.753969 -45.686118 -17.528443 34.273336 13.965933 13.229076 27.599466 -25.139852 0.078753 -20.882281 17.152751 14.520905 10.188416 -9.126675 -25.720131 -106.049492 -23.537686 -68.653121 -62.468507 -48.424300 -24.088445 34.618865 9.380113 -25.637156 34.870465 47.202228 114.039154 181.946486 204.968390 -16.206705 251.709137 49.303099 -1.216434 7.210384 53.276104 20.667574 -3.367564 -106.427352 -18.814830 -23.223377 124.246168 21.145941 24.456336 14.742586 4.432904 2.077405 6.841385
-174.634473 97.859543 -385.357546 8.038926 25.918702 159.226381 -21.084927 17.320887 12.241296 15.325059 18.405007 -4.279951 -43.456973 -3.666665 26.362623 2.007652 -11.985472 -44.902002 -17.380753 40.934741 9.797657 14.266568 30.558413 -24.824121 -1.352380 -25.738400 20.645046 21.732373 11.560439 -2.914562 -18.095814 -92.451371 -19.107804 -67.867328 -58.034984 -54.770891 -28.337963 37.772025 13.215973 -29.807123 36.891156 52.532563 114.080319 175.221331 198.699752 -14.252446 242.051304 54.804799 4.020126 9.181236 52.355712 18.892944 -2.890097 -111.105506 -18.350176 -22.011183 126.752356 24.641040 25.553138 12.635579 4.536552 2.777724 6.226533
-176.230085 98.244484 -386.167711 9.004416 24.288964 159.029958 -21.365349 17.248354 11.201137 16.508895 16.095498 -5.308496 -43.400487 -3.529025 26.453017 1.961026 -11.586602 -43.758915 -14.428310 40.408458 5.942906 14.909178 34.976343 -22.848376 -2.960174 -29.537758 23.621789 23.978914 10.054168 -7.148339 -17.582896 -88.540985 -24.987501 -67.216677 -56.233098 -58.560232 -31.153145 38.616162 7.702409 -25.680234 45.866028 51.337877 107.855456 171.405715 193.198294 -13.502624 236.136415 56.912459 -10.880431 5.579714 45.030980 18.512830 -4.093002 -115.554329 -16.603821 -22.592708 130.679141 28.620714 26.328209 11.344738 4.650741 3.579912 5.900143
-177.828214 98.465174 -387.109217 11.981841 20.856783 153.868494 -20.326061 15.139463 10.488393 17.185258 13.710715 -5.620804 -42.711017 -3.788057 26.879069 1.734143 -11.476840 -42.371509 -12.572280 40.777148 -0.919138 13.102267 35.843634 -22.004759 -6.480392 -32.963808 26.660199 24.072840 9.453205 -12.763879 -24.127811 -89.148134 -31.411265 -60.684250 -56.281312 -63.696418 -24.461359 33.960991 18.662457 -32.535972 48.058348 59.854409 108.207859 159.321075 187.262163 -11.933787 228.624190 60.916613 0.728285 7.032967 57.106969 20.231601 -4.939637 -118.892515 -15.575391 -23.882533 134.986094 32.932543 27.296918 10.695742 4.751143 4.736593 5.745807
-179.599206 98.711613 -388.372454 14.330792 16.126678 151.296381 -17.661199 12.424753 9.618529 17.869762 13.169213 -6.796500 -43.425383 -3.519825 27.503031 1.495043 -11.425938 -40.998525 -9.389996 34.313159 -3.943044 14.449267 38.814725 -19.713613 -14.736230 -30.632596 29.769598 26.929395 13.749552 -16.810573 -29.822617 -88.193998 -41.422673 -66.652606 -50.496285 -60.394568 -29.537812 31.712661 1.730814 -36.533538 50.402315 65.900486 109.319193 150.815126 183.104162 -7.112916 217.517824 62.266962 -14.232260 3.071771 47.770893 22.830606 -6.257226 -122.051724 -12.840856 -23.318317 138.998625 37.041868 27.679833 9.970766 4.854082 5.922329 5.504203
-181.167257 98.728827 -389.740595 13.600227 10.023414 147.092249 -16.475176 7.656581 7.568580 18.167808 10.506186 -8.243473 -43.853390 -3.192749 27.764746 1.329571 -11.431118 -39.948643 -4.618736 25.389044 -5.597442 12.247041 40.927972 -18.731297 -20.649540 -27.041308 31.989727 24.698758 11.305473 -23.371456 -42.638402 -93.037927 -55.711439 -64.994277 -49.883532 -58.826391 -33.440381 29.485780 10.111022 -38.711897 58.415234 69.679247 114.153880 138.008794 177.562857 -5.787605 209.279865 67.392882 -8.252831 8.193878 55.967540 23.958034 -7.486234 -124.900309 -8.530870 -21.291074 142.580021 40.740176 27.898951 8.787599 4.930635 7.314939 5.087942
-182.563607 98.671864 -391.138300 16.296188 10.407001 146.732489 -16.060071 10.298313 6.047299 19.685133 11.282633 -9.850581 -44.823198 -1.418505 28.996188 1.289513 -11.036056 -38.494451 -2.902754 24.925071 -7.687945 11.821952 42.639071 -15.473461 -22.345468 -22.891814 33.839018 24.358905 10.267499 -25.475796 -53.365347 -90.188782 -72.380737 -64.053616 -43.778880 -56.656317 -15.555570 20.147514 -11.222828 -36.968430 65.973555 73.120986 120.526433 124.298856 171.198541 0.084296 200.259876 68.969843 -19.830250 -7.147357 45.258087 25.560216 -4.345882 -127.555340 -5.469883 -20.570805 145.912525 44.603584 27.303557 8.200160 4.996270 8.685631 4.651002
